<svg id="Layer_1" data-name="Layer 1" xmlns="http://www.w3.org/2000/svg" viewBox="0 0 127.99 127.99"><defs><style>.cls-1{fill:#dd5b49;}.cls-2{fill:#fcfcfc;}.cls-3{fill:#fcfbfb;}.cls-4{fill:#b74c3d;}.cls-5{fill:#ba5143;}.cls-6{fill:#bb5548;}.cls-7{fill:#bb594b;}.cls-8{fill:#bb594c;}.cls-9{fill:#bc5546;}.cls-10{fill:#b84f40;}.cls-11{fill:#b74f3f;}.cls-12{fill:#de6150;}.cls-13{fill:#bc5b4c;}</style></defs><title>InstructionsLogo</title><path class="cls-1" d="M128,64.52A64,64,0,0,1,63.4,128.17C28.3,128-.11,99.13,0,63.83A64,64,0,0,1,64.6.18C99.69.38,128.12,29.23,128,64.52Z" transform="translate(0 -0.18)"/><path class="cls-2" d="M76.9,58.72c-.82-2.07-2.73-2.58-5-3.48.78,3.23,1.46,6.08,2.14,8.93A34.18,34.18,0,0,1,56.76,98.46a49,49,0,0,1-9.06,4.12c-1.72.52-3.23.72-4.67-.52-1.6-2.33-1.13-3.92,1.58-5a77.26,77.26,0,0,0,9.12-4A28.76,28.76,0,0,0,67.09,58c-1.75.81-1.12,2.84-2.1,4.1s-1.58,3.43-4,2c-2.36-3.73.72-6.58,1.77-9.63,2.79-8.17,3-8.2,10.34-3.53,2.85,1.81,6.46,2.74,8,6.25C80.72,60.55,78.9,59.9,76.9,58.72Z" transform="translate(0 -0.18)"/><path class="cls-3" d="M55.05,36.12c-2.92-2.76-5.11-5.8-3.55-10.11a8.07,8.07,0,0,1,7.43-5.77c4.94-.3,7.56,2.74,9.17,7,1.14,4.25-.52,7.36-4,9.63C60.92,38.88,57.87,38.62,55.05,36.12Z" transform="translate(0 -0.18)"/><path class="cls-3" d="M87,93.11c-2-2.23-.31-3.67,1.23-4.92,2.23-1.81,2.18-3.3,0-5.14-1.14-1-3.23-2.07-1.62-4s3.08-.14,4,1.05c2.16,2.75,3.85,2.17,5.86-.18s3.88-2.74,4.4,1.18c-.38,2.34-2.65,3.29-3.76,5.09.93,2.18,4.09,2.93,3.78,5.91-.61,1.41-1.45,2.16-2.92,1l-3-2.83c-1.79-.07-2.89,1.24-4.2,2.13S88.58,94.44,87,93.11Z" transform="translate(0 -0.18)"/><path class="cls-3" d="M39.14,65.2c.94,2.18,4.1,2.94,3.79,5.92-.61,1.42-1.45,2.15-2.92,1l-3-2.83a6.35,6.35,0,0,0-4.22,2.07c-1.06,1-2.17,2.11-3.75.79-1.94-2.22-.33-3.67,1.23-4.92,2.23-1.8,2.18-3.31,0-5.14-1.13-1-3.22-2.08-1.6-4s3.07-.11,4,1.08c2.17,2.77,3.85,2.13,5.85-.21s3.88-2.72,4.4,1.19C42.53,62.46,40.27,63.41,39.14,65.2Z" transform="translate(0 -0.18)"/><path class="cls-4" d="M43,102.06c15.82-.92,30.22-16.51,30.87-33.43.06-1.49.08-3,.12-4.46C77.09,75,72.71,84,66.37,92.17c-4.63,6-11.38,9-18.36,11.5C45.92,104.42,44.07,104.51,43,102.06Z" transform="translate(0 -0.18)"/><path class="cls-5" d="M55.05,36.12c8,2.39,12.2-.48,13-8.9,1.83,5.61.83,8.55-3.77,11.07C60.84,40.2,57.57,39.44,55.05,36.12Z" transform="translate(0 -0.18)"/><path class="cls-6" d="M87,93.11c2.19.24,3.17-1.53,4.48-2.73,1.16-1,2.24-2.3,3.49-.13C92.59,91.91,91.47,97.15,87,93.11Z" transform="translate(0 -0.18)"/><path class="cls-6" d="M61,64.14c4.4-.31,3.24-4.69,5.06-6.89a1.25,1.25,0,0,1,.34-.25l.68,1c.08,2.41-1.11,4.4-2.23,6.35C63.54,66.68,62.16,66.38,61,64.14Z" transform="translate(0 -0.18)"/><path class="cls-6" d="M29,72.11c2.19.23,3.18-1.52,4.49-2.73,1.15-1.06,2.23-2.3,3.48-.13-1.55,1.35-3.08,2.75-4.68,4S29.72,73.62,29,72.11Z" transform="translate(0 -0.18)"/><path class="cls-7" d="M39.14,65.2c-.17-2.75,2.47-3.42,3.77-5.08C44.13,63.64,41.44,64.28,39.14,65.2Z" transform="translate(0 -0.18)"/><path class="cls-8" d="M97.15,86.21c-.19-2.77,2.47-3.43,3.76-5.09C102.14,84.64,99.43,85.27,97.15,86.21Z" transform="translate(0 -0.18)"/><path class="cls-9" d="M76.9,58.72c1.66.19,3.49.9,4.24-1.49,1.07,1.11,1.4,2.69.14,3.4C79.39,61.71,77.91,60.41,76.9,58.72Z" transform="translate(0 -0.18)"/><path class="cls-10" d="M40,72.08a3.72,3.72,0,0,0,2.92-1c1.12.77,1,1.7,0,2.37C41.34,74.59,40.62,73.37,40,72.08Z" transform="translate(0 -0.18)"/><path class="cls-11" d="M98,93.08a3.69,3.69,0,0,0,2.92-1c1.12.77,1,1.71,0,2.38C99.34,95.59,98.61,94.37,98,93.08Z" transform="translate(0 -0.18)"/><path class="cls-12" d="M62,25.2c3,2.29,2.67,4.95.07,7-2.75,2.12-5.27,1.18-6.77-2C56.17,26.59,58.44,25,62,25.2Z" transform="translate(0 -0.18)"/><path class="cls-13" d="M62,25.2c-2.44,1.36-5.09,2.43-6.7,4.91C55.27,24.63,57,23.37,62,25.2Z" transform="translate(0 -0.18)"/></svg>