<svg id="Layer_1" data-name="Layer 1" xmlns="http://www.w3.org/2000/svg" viewBox="0 0 732.14 1779.31"><defs><style>.cls-1{fill:#231f20;}.cls-2{fill:#d4ab2a;}.cls-3{fill:#efd053;}.cls-4{fill:#f3e8b4;}.cls-5{fill:#e8c9a0;}</style></defs><title>pencil</title><path class="cls-1" d="M14.44,0H717.7a14.44,14.44,0,0,1,14.44,14.44V1257.6a0,0,0,0,1,0,0H0a0,0,0,0,1,0,0V14.44A14.44,14.44,0,0,1,14.44,0Z"/><polygon class="cls-1" points="366.07 1779.31 0 1252.16 732.14 1252.16 366.07 1779.31"/><path class="cls-2" d="M60.92,58.65H261.85a0,0,0,0,1,0,0V1240.37a0,0,0,0,1,0,0H53.4a0,0,0,0,1,0,0V66.17A7.52,7.52,0,0,1,60.92,58.65Z"/><rect class="cls-3" x="261.85" y="58.65" width="208.45" height="1181.73"/><path class="cls-4" d="M470.3,58.65H671.22a7.52,7.52,0,0,1,7.52,7.52v1174.2a0,0,0,0,1,0,0H470.3a0,0,0,0,1,0,0V58.65A0,0,0,0,1,470.3,58.65Z"/><path class="cls-5" d="M354.23,1681.64,53.4,1239.86H678.74L377.91,1681.64A14.32,14.32,0,0,1,354.23,1681.64Z"/></svg>