<svg id="Layer_1" data-name="Layer 1" xmlns="http://www.w3.org/2000/svg" viewBox="0 0 127.99 127.99"><defs><style>.cls-1{fill:#334d5c;}.cls-2{fill:#e07b3e;}.cls-3{fill:#009c84;}.cls-4{fill:#00a088;}.cls-5{fill:#ecb300;}.cls-6{fill:#e2e5e6;}.cls-7{fill:#ebb300;}.cls-8{fill:#e4b06f;}.cls-9{fill:#e2b073;}.cls-10{fill:#e5af70;}.cls-11{fill:#e3b071;}.cls-12{fill:#334653;}.cls-13{fill:#314653;}.cls-14{fill:#69b7a0;}.cls-15{fill:#ffc900;}.cls-16{fill:#f5d067;}.cls-17{fill:#f0f1f1;}.cls-18{fill:#5fbca8;}.cls-19{fill:#fbce34;}.cls-20{fill:#ffc300;}.cls-21{fill:#e3ad00;}.cls-22{fill:#46b19a;}.cls-23{fill:#edc18a;}.cls-24{fill:#eac08d;}.cls-25{fill:#ecb873;}.cls-26{fill:#ffdb65;}.cls-27{fill:#95cfc2;}</style></defs><title>PencilsIcon</title><path class="cls-1" d="M128,64.36A64,64,0,0,1,63.4,128C28.29,127.78-.12,98.94,0,63.65A64,64,0,0,1,64.6,0C99.71.22,128.12,29.06,128,64.36Z" transform="translate(0 -0.01)"/><path class="cls-2" d="M36.87,95.06C35.66,92.8,36,90.38,36.15,88A4.84,4.84,0,0,1,39.3,86.7a48.8,48.8,0,0,1,5.27-.12c4.78.33,9.75-1.34,14.28,1.39.18,2.41.51,4.83-.71,7.09C52.72,100.57,41.86,100.57,36.87,95.06Z" transform="translate(0 -0.01)"/><path class="cls-2" d="M91.85,88c.18,2.41.51,4.83-.72,7.09-5,5.51-16.26,5.51-21.26,0-1.21-2.27-.92-4.68-.72-7.09A4.84,4.84,0,0,1,72.3,86.7a48.8,48.8,0,0,1,5.27-.12C82.35,86.91,87.32,85.24,91.85,88Z" transform="translate(0 -0.01)"/><path class="cls-3" d="M91.91,47.89q0,16.1,0,32.2A4.76,4.76,0,0,1,85.63,80c-1.39-2.1-1-4.49-1-6.78q-.08-9.72,0-19.43c0-2.12-.29-4.38,1.51-6.07C88.08,46.76,90,47.12,91.91,47.89Z" transform="translate(0 -0.01)"/><path class="cls-4" d="M69.11,80.1V48.9a4.06,4.06,0,0,1,3.18-1.66,3.08,3.08,0,0,1,2.92,3.4c.07,9.59.84,19.19-.41,28.76A3,3,0,0,1,72.59,81,3.93,3.93,0,0,1,69.11,80.1Z" transform="translate(0 -0.01)"/><path class="cls-5" d="M36.17,80V49c1.77-1.39,3.54-2.74,5.58-.39a156,156,0,0,1,.06,30.79,3,3,0,0,1-2.2,1.6A3.74,3.74,0,0,1,36.17,80Z" transform="translate(0 -0.01)"/><path class="cls-6" d="M58.85,88,44,87.83c-1.91-2.48-1.67-5.08-.45-7.74,2.2-2,4.93-1.34,7.5-1.5l1.66,0c1.08,0,2.17,0,3.25.12A4.34,4.34,0,0,1,58.84,80C58.84,82.66,58.85,85.32,58.85,88Z" transform="translate(0 -0.01)"/><path class="cls-6" d="M86.07,79.86l5.83.23c0,2.63,0,5.26-.05,7.88L77,87.84c-1.93-2.53-1.7-5.17-.38-7.86,2.43-1.88,5.15-1.5,7.89-1A7.45,7.45,0,0,1,86.07,79.86Z" transform="translate(0 -0.01)"/><path class="cls-7" d="M58.84,80,56,79.83a2.78,2.78,0,0,1-1-1.63c-.47-9.63-1.29-19.26.46-28.86A2.33,2.33,0,0,1,58.89,49Q58.86,64.49,58.84,80Z" transform="translate(0 -0.01)"/><path class="cls-8" d="M58.89,49,56,49c-.94.82-1.76.41-2.56-.27A8.66,8.66,0,0,1,52.18,47c-1.75-3.52-2.38-7.51-4.47-10.91a2.58,2.58,0,0,1,2.49-3C53.78,38,58.64,42.22,58.89,49Z" transform="translate(0 -0.01)"/><path class="cls-9" d="M91.91,47.89c-1.27,1.24-2.57,1-3.89.1a9.29,9.29,0,0,0-1.87-1A5,5,0,0,1,84,44.38a29,29,0,0,0-5.11-9.55c1.45-1.19,3-1.88,4.86-1C87,38.23,91.07,42.12,91.91,47.89Z" transform="translate(0 -0.01)"/><path class="cls-10" d="M36.15,48c.76-6.2,5.19-10.28,8.64-14.92a1.75,1.75,0,0,1,1.53,2.13c-2.27,3.89-1.82,9.18-6.14,12C38.82,47.4,37.75,49.14,36.15,48Z" transform="translate(0 -0.01)"/><path class="cls-11" d="M71.17,48.14a2,2,0,0,1-2.06.76c.08-6.42,4.81-10.34,8.11-15a1.24,1.24,0,0,1,1.24,1.44c-.76,4.28-1.35,8.62-4.84,11.77C72.88,47.59,71.72,47.16,71.17,48.14Z" transform="translate(0 -0.01)"/><path class="cls-12" d="M69.87,95.06q10.62,6.06,21.26,0c1.3,1.29.27,2-.7,2.69-4.32,3-15.54,3-19.86,0C69.6,97.07,68.57,96.35,69.87,95.06Z" transform="translate(0 -0.01)"/><path class="cls-13" d="M36.87,95.06q10.64,6.07,21.27,0c1.44,1.62-.31,1.9-1.1,2.48-4.47,3.3-14.87,3.41-19.43.23C36.63,97.09,35.56,96.39,36.87,95.06Z" transform="translate(0 -0.01)"/><path class="cls-6" d="M69.11,80.1l2.91.06a6,6,0,0,1,0,7.68L69.15,88C69.14,85.35,69.12,82.72,69.11,80.1Z" transform="translate(0 -0.01)"/><path class="cls-6" d="M36.17,80l2.84.17a6,6,0,0,1,0,7.67L36.15,88Q36.15,84,36.17,80Z" transform="translate(0 -0.01)"/><path class="cls-14" d="M78.13,34.86l-.91-1c2.18-4.39,4.37-4.41,6.54,0-1.55.52-3,1.41-4.77,1.19C78.61,35.42,78.32,35.36,78.13,34.86Z" transform="translate(0 -0.01)"/><path class="cls-15" d="M45.84,35.11l-1.05-2c1.8-3.55,3.6-3.58,5.41,0l-2.3,2.83C46.82,36.64,46.08,36.49,45.84,35.11Z" transform="translate(0 -0.01)"/><path class="cls-16" d="M36.15,48,40,47a3.46,3.46,0,0,1,3.56-.51,1.1,1.1,0,0,1,.58,1.25,2,2,0,0,1-1.89,1A3.15,3.15,0,0,1,41,48L36.17,49A1.28,1.28,0,0,1,36.15,48Z" transform="translate(0 -0.01)"/><path class="cls-17" d="M39,87.84c0-2.56,0-5.12,0-7.67l1.93-.33a4,4,0,0,1,1.28-.56,1.83,1.83,0,0,1,1.77.89q0,3.83,0,7.67Z" transform="translate(0 -0.01)"/><path class="cls-17" d="M72,87.84V80.16l1.92-.31a3.75,3.75,0,0,1,1.26-.56,1.81,1.81,0,0,1,1.78.87v7.68Z" transform="translate(0 -0.01)"/><path class="cls-18" d="M87,46.94,88,48c-2.77.42-2,2.61-2,4.26,0,9.2,0,18.41,0,27.61H85c-1.67-1.75-1.49-4-1.5-6.11,0-8.47-.09-16.94,0-25.41C84,46.11,85.33,46.12,87,46.94Z" transform="translate(0 -0.01)"/><path class="cls-18" d="M75,79.84H73.94L74,52c0-2,.4-4.26-2.83-3.88.21-1,1.06-1,1.8-1.22,1.67-.78,3.06-.84,3.55,1.39.1,8.47,0,16.94,0,25.42C76.52,75.86,76.7,78.09,75,79.84Z" transform="translate(0 -0.01)"/><path class="cls-19" d="M42.05,79.84H40.94Q41,63.94,41,48l1.13.06a5.37,5.37,0,0,1,1.38,3.66q.33,12.22,0,24.46A5,5,0,0,1,42.05,79.84Z" transform="translate(0 -0.01)"/><path class="cls-20" d="M42.05,79.84q0-15.87,0-31.75h1.83l.72-.12c2.22-.11,4.42-.64,6.68-.47a2.65,2.65,0,0,1,1.32,1.06c1.5,9.7.67,19.43.48,29.16A3.38,3.38,0,0,1,52,79.84l-8,.33Z" transform="translate(0 -0.01)"/><path class="cls-21" d="M54,48l2,1q0,15.4,0,30.81l-2.94,0c-1.19-10.25-.29-20.53-.47-30.8C52.58,48.31,53.21,48,54,48Z" transform="translate(0 -0.01)"/><path class="cls-19" d="M54,48c-1.74,1.63-.92,3.74-.94,5.61-.07,8.74,0,17.47,0,26.21H52c0-9.25,0-18.51,0-27.76,0-1.44.42-3-1-4.12.14-1.6,1-1.67,2.14-1Z" transform="translate(0 -0.01)"/><path class="cls-22" d="M75,79.84c0-9.08,0-18.16,0-27.24,0-1.58-.54-3.35,1-4.61a1.65,1.65,0,0,1,1.23-.45,15.15,15.15,0,0,0,5.33,0,1.88,1.88,0,0,1,1.27.39c1.63,1.22,1.09,3,1.1,4.59,0,9.11,0,18.22,0,27.32l-8,.31Z" transform="translate(0 -0.01)"/><path class="cls-23" d="M53.08,47l-2.14,1c-.3,0-.6,0-.9,0a1.22,1.22,0,0,1-1.3.24c-1.55-.51-3.41.17-4.74-1.2L40,47c3.17-3.35,2.3-8.67,5.81-11.85a2.1,2.1,0,0,0,2.06.82C52.06,38.48,51.31,43.33,53.08,47Z" transform="translate(0 -0.01)"/><path class="cls-24" d="M83.88,47.94h-.41l-.4,0a8.37,8.37,0,0,1-6.15.06,6.33,6.33,0,0,0-.87,0c-.76-1.12-2-1-3.08-1.07,3-3.48,3-8.22,5.16-12.06.29.06.58.12.86.2a6.54,6.54,0,0,1,5.07,6.24c.16,2.26,1.78,3.86,3,5.64C85.89,47,84.68,46.86,83.88,47.94Z" transform="translate(0 -0.01)"/><path class="cls-25" d="M44,47c1.7.15,3.58-.64,5,.88a5.89,5.89,0,0,1-5.1.13l0,0C43.94,47.74,44,47.39,44,47Z" transform="translate(0 -0.01)"/><path class="cls-26" d="M44,48.05l5.1-.13L50,48A4.66,4.66,0,0,1,44,48.05Z" transform="translate(0 -0.01)"/><path class="cls-27" d="M76.92,48,83.07,48A4.66,4.66,0,0,1,76.92,48Z" transform="translate(0 -0.01)"/></svg>