<svg id="Layer_1" data-name="Layer 1" xmlns="http://www.w3.org/2000/svg" viewBox="0 0 128.22 128.13"><defs><style>.cls-1{fill:#334d5c;}.cls-2{fill:#4d6471;}.cls-3{fill:#647881;}.cls-4{fill:#485e6a;}.cls-5{fill:#60747f;}.cls-6{fill:#4a606e;}.cls-7{fill:#2f4756;}.cls-8{fill:#495f6d;}.cls-9{fill:#fdfdfd;}.cls-10{fill:#dd5b49;}.cls-11{fill:#e3e3e3;}.cls-12{fill:#c04631;}.cls-13{fill:#bf442d;}.cls-14{fill:#4c5f6c;}.cls-15{fill:#344756;}.cls-16{fill:#ebc549;}.cls-17{fill:#e2ae00;}.cls-18{fill:#46525c;}.cls-19{fill:#44525b;}.cls-20{fill:#40535d;}.cls-21{fill:#4d616f;}.cls-22{fill:#de5c4a;}.cls-23{fill:#bd4028;}.cls-24{fill:#aaafb2;}</style></defs><title>Rocket</title><path class="cls-1" d="M1.92,78.18C-5.21,55.36,6,26.26,27.66,11.31a64,64,0,0,1,99.08,65.55,5.62,5.62,0,0,1-.66,1.32c-1.69-.68-2.9-2.12-4.52-2.92-5.24-2.6-10.83-.25-12.86,5.45a10.52,10.52,0,0,1-1.08,3.92,1.81,1.81,0,0,1-1.1.75,2.77,2.77,0,0,1-1.28-.42c-3-2.35-6.12-2.08-9.35-.66-2-.35-2.26-2.2-2.89-3.62a34.13,34.13,0,0,0-9.58-12.84,8,8,0,0,1-2-2.09C80.26,55.92,79.11,46.1,74.8,37a71.81,71.81,0,0,0-8.58-13.84c-.86-1.09-1.69-2.07-3.26-1.57-6.5,6.09-9.75,14-12.48,22.18-2.37,7.07-3.13,14.47-3.79,21.87a6.91,6.91,0,0,1-2,2.15,34.09,34.09,0,0,0-9.43,12.39c-.72,1.54-.89,3.6-3.05,4.13-3.21-1.34-6.36-1.74-9.32.62a2.94,2.94,0,0,1-1.27.48,1.69,1.69,0,0,1-1.14-.65,10.76,10.76,0,0,1-1.19-3.91c-2.44-5.89-6.9-7.78-12.75-5.56C4.75,75.94,3.51,77.3,1.92,78.18Z" transform="translate(0.22 0)"/><path class="cls-2" d="M33,119.78C17.83,111.31,7.5,99,2.94,82,4.42,78.3,7.58,77.7,11,77.87c4.8.24,8.5,2.17,10,7.13h0c1.42,1.71,3.32,1.9,5.39,1.82,1.79-.07,3.67-.21,5.1,1.3.94,1.6.78,3.42,1,5.16.29,2.88,1.88,3.66,4.5,2.81a13.3,13.3,0,0,0,2.36-.77c6.5-3.66,12.34-2,17.88,2.17a5.67,5.67,0,0,1,.89,2c.33,2.55,2,4.64,2.47,7.17.17,2,1.12,3.68,3.19,3.78,2.38.13,3.4-1.62,3.62-3.84.43-2.52,2.21-4.6,2.35-7.22a5.06,5.06,0,0,1,1.1-2.67c6.25-3.92,12.61-4.09,19.25-.92,2.38,1.14,5,1.66,5.4-2.35.2-1.75,0-3.56.93-5.18,1.46-1.7,3.47-1.44,5.36-1.44s3.89.06,5.19-1.79h0c3-6.18,8.12-8.48,14.64-6.49A31.8,31.8,0,0,1,125.82,80C121.2,97.66,111,111,95,119.78c-6.31-6.08-14.28-9-21.89-5-6.82,3.56-11.51,3-18.1-.16C47.16,110.83,39.4,114,33,119.78Z" transform="translate(0.22 0)"/><path class="cls-3" d="M92.23,121.1q-28.23,14.07-56.46,0C41.35,115,53.89,116,60,119.7c2.94,1.8,5,1.79,8,.09C75.74,115.45,87.39,115.78,92.23,121.1Z" transform="translate(0.22 0)"/><path class="cls-4" d="M33,119.78c3.14-6.09,12.83-9.42,20.85-7.36,4.1,1.06,7.58,5.62,10.65,5.24s6.19-4.23,10.25-5.12c8.54-1.88,17,1,20.23,7.24a.87.87,0,0,1-.8.35c-1.81.44-3.15-.73-4.61-1.41-8.46-3.91-16.41-3.24-23.73,2.65-1.19.95-2,1.54-3.35.35-7.9-6.9-16.47-6.68-25.42-2.34-1,.49-2,1.23-3.27.74A.83.83,0,0,1,33,119.78Z" transform="translate(0.22 0)"/><path class="cls-5" d="M33.81,120.12c7.93-6.59,22.28-7.27,29,.55.89,1,1.33.79,2.33,0,9.77-7.68,18.3-7.8,29-.55l-2,1c-7.26-3-14.55-4.15-22.14-1-5.36,2.19-7,2-12.66-.3-7.42-3-14.6-1.67-21.66,1.35Z" transform="translate(0.22 0)"/><path class="cls-6" d="M21,85c-5.63-6.92-10.9-7.79-18.07-3a3.43,3.43,0,0,1-.89-3c5.59-6.51,14.54-5.51,18,2A7,7,0,0,1,21,85Z" transform="translate(0.22 0)"/><path class="cls-7" d="M108,81c-.35-4.54,2.86-7.63,8.5-8,4.19-.25,7.71,1,9.59,5.15a.65.65,0,0,1-.12.8c-.47.19-1,.43-1.43.21C118.57,75.81,113.21,77.74,108,81Z" transform="translate(0.22 0)"/><path class="cls-8" d="M108,81c5.19-6,9.16-6.47,18-2,0,.35-.1.7-.14,1-.89.41-1.72,1.07-2.8.48-6.8-3.7-11.64-.4-16,4.49A6.92,6.92,0,0,1,108,81Z" transform="translate(0.22 0)"/><path class="cls-7" d="M20,81c-5.19-6-9.16-6.46-18-2a.63.63,0,0,1-.13-.8c1.79-3.65,7.11-6,11.19-5C17.66,74.33,20,77,20,81Z" transform="translate(0.22 0)"/><path class="cls-9" d="M45.87,65.84A71.31,71.31,0,0,1,57.1,26.3c1.58-2.48,3-5.2,5.82-6.6C71,27,75.08,36.5,78,46.61c4.06,13.93,2.63,27.92-.15,41.84a9.87,9.87,0,0,1-5.08,7.06c-1,.44-2.11.72-3.14,1.19-1.52.25-2.76-.11-3.42-1.65-.62-3.35.69-6.5,1-9.76.52-6.05,1.33-12.16-2.58-17.55-4,.49-3.59,4-4,6.42a41,41,0,0,0,.65,15.29c.49,2.21,1.38,4.51-.1,6.74a4.33,4.33,0,0,1-3.08.91c-3.55-.91-7.12-1.78-9.47-5C45.77,83.58,43.62,75,45.87,65.84Z" transform="translate(0.22 0)"/><path class="cls-10" d="M96.88,88c0,1.92,0,3.83,0,5.75-1.42,3.28-3.83,3.92-6.8,2.27s-6.93-1.17-9-4.55C81.1,83.23,81,75,84,67.06c6.34,4.06,8.77,10.83,11.86,17.14a1.85,1.85,0,0,1,.79.87A5.25,5.25,0,0,1,96.88,88Z" transform="translate(0.22 0)"/><path class="cls-10" d="M31,93.89c0-2,0-3.93,0-5.89-.73-1-.15-2,.17-3A2.48,2.48,0,0,1,32,84c3.14-6.26,5.61-13,11.94-17,2.09,2.41,1.07,5.47,1.4,8.14.66,5.37,2.23,10.71,1.52,16.22-3,3.79-7.64,4-11.72,5.38C33.21,97.42,32,95.52,31,93.89Z" transform="translate(0.22 0)"/><path class="cls-11" d="M72,94.94c4.18-2.77,4.71-7.15,5.46-11.63,2.36-14,2.5-27.85-2.28-41.58-2.83-8.13-7.81-14.89-12.25-22,2.82-.82,3.61,1.7,4.77,3.18,9.83,12.62,14.48,27,14.45,43,2.23,6-.51,11.92-.73,17.88-.1,2.79,0,6-2.16,8.43C77,93.65,75.5,96.9,72,94.94Z" transform="translate(0.22 0)"/><path class="cls-12" d="M46,92.05,44,67l1.91-1.18c.78,8.75.68,17.64,3.72,26.07A2.31,2.31,0,0,1,46,92.05Z" transform="translate(0.22 0)"/><path class="cls-13" d="M78.17,91.93c3.42-8.37,3.15-17.3,4-26.06.63.4,1.26.8,1.9,1.19L82,92.06A2.55,2.55,0,0,1,78.17,91.93Z" transform="translate(0.22 0)"/><path class="cls-8" d="M96.88,88c-.94-.81-.86-1.92-.86-3,3.32-2.33,6.65-1.29,10,0l1,0c0,2.18-.13,3.88-3.27,3.18C101.54,87.69,99.17,88.05,96.88,88Z" transform="translate(0.22 0)"/><path class="cls-14" d="M31.89,85,31,88c-2.13,0-4.33-.32-6.36.12-2.93.63-3.34-1-3.63-3.13h1C25.3,83.77,28.59,82.7,31.89,85Z" transform="translate(0.22 0)"/><path class="cls-15" d="M106,85H96a1.65,1.65,0,0,1-.12-.82C98.76,80.72,103.16,81.07,106,85Z" transform="translate(0.22 0)"/><path class="cls-7" d="M31.89,85H22c2.75-3.85,7.06-4.26,10-1A2,2,0,0,1,31.89,85Z" transform="translate(0.22 0)"/><path class="cls-16" d="M70.78,100c0,2.64-1.75,4.69-2.57,7-.54,2.37-2,3.89-4.45,3.74a4.14,4.14,0,0,1-4-3.74c-.81-2.37-2.53-4.4-2.57-7C61.74,100.28,66.26,100.79,70.78,100Z" transform="translate(0.22 0)"/><path class="cls-17" d="M70.78,100c-4.52,3.06-9,2.35-13.56,0-.12-.69-.24-1.38-.37-2.07-.37-1,.4-1.36,1-1.81l3.28-.2c1.14-.26,1.79.86,2.78,1,1-.14,1.36-1.4,2.45-1.32L70,96a1.75,1.75,0,0,1,1,1C70.89,98,70.84,99,70.78,100Z" transform="translate(0.22 0)"/><path class="cls-18" d="M71,97l-1-1,2-1.06c2.7.3,4.36-1.51,6.18-3l3.8.13c2.63,1,5.36,1.75,7.87,3,2.8,1.36,5.06,1.12,7.08-1.24-.25,4.14-2.51,5-6,3.66a40,40,0,0,0-4.6-1.73c-3.53-.84-7.11-2.71-10.58.38C74.4,97.23,72.6,97.05,71,97Z" transform="translate(0.22 0)"/><path class="cls-19" d="M57.86,96.13l-1,1.81c-6.48-4.19-13-4-19.79-.56-3.21,1.63-5.43.13-6-3.49,1.93,2,4,2.58,6.67,1.28s5.53-2.1,8.31-3.12l3.57-.13C51.56,94.87,55,94.92,57.86,96.13Z" transform="translate(0.22 0)"/><path class="cls-20" d="M59.79,107.06q4.21,5.63,8.42,0c.72,3.64-1.91,4.84-4.45,4.72C61.58,111.67,58.93,110.45,59.79,107.06Z" transform="translate(0.22 0)"/><path class="cls-21" d="M73,48.17a9,9,0,1,1-18-.11,9,9,0,1,1,18,.11Z" transform="translate(0.22 0)"/><path class="cls-22" d="M64.05,98.76c-1.75-.14-1.79-2.05-2.92-2.83C60,89.39,58.53,82.88,59,76.15A20.71,20.71,0,0,1,60.92,68c.84-1.61,1.65-4,4.35-2.16.57,9.08.35,18.17.14,27.25A10.92,10.92,0,0,1,64.05,98.76Z" transform="translate(0.22 0)"/><path class="cls-23" d="M64.05,98.76c0-9.48-.06-19,0-28.43,0-1.59-.47-3.39,1.26-4.54,3.26,2.73,3.33,6.67,3.6,10.36a48.17,48.17,0,0,1-2.5,19.44C65.73,96.75,65.8,98.42,64.05,98.76Z" transform="translate(0.22 0)"/><path class="cls-24" d="M64.12,42c3.58.59,5.93,2.57,5.73,6.25s-2.58,5.82-6.23,5.6A5.47,5.47,0,0,1,58.13,48C58.17,44.31,60.54,42.43,64.12,42Z" transform="translate(0.22 0)"/></svg>